<?xml version="1.0" standalone="no"?>
<!DOCTYPE svg PUBLIC "-//W3C//DTD SVG 20010904//EN"
 "http://www.w3.org/TR/2001/REC-SVG-20010904/DTD/svg10.dtd">
<svg version="1.0" xmlns="http://www.w3.org/2000/svg"
 width="1024.000000pt" height="1024.000000pt" viewBox="0 0 1024.000000 1024.000000"
 preserveAspectRatio="xMidYMid meet">

<g transform="translate(0.000000,1024.000000) scale(0.100000,-0.100000)"
fill="#000000" stroke="none">
<path d="M2559 8460 c-92 -16 -205 -52 -283 -92 -220 -110 -379 -285 -463
-509 -67 -178 -64 -25 -61 -2801 l3 -2513 22 -75 c58 -195 121 -308 243 -431
93 -94 140 -129 245 -182 103 -52 190 -80 300 -97 36 -6 1083 -10 2576 -10
l2516 0 95 24 c183 46 317 123 454 260 124 125 185 221 232 366 54 165 52 57
52 2710 0 1723 -3 2482 -11 2545 -26 210 -123 400 -286 556 -124 120 -283 203
-458 240 -87 18 -176 19 -2610 18 -1386 -1 -2541 -5 -2566 -9z m2437 -1843
l25 -29 -3 -1231 -3 -1232 -24 -70 c-36 -108 -63 -154 -136 -233 -75 -81 -119
-110 -226 -150 -68 -25 -86 -27 -219 -27 -220 0 -362 43 -470 142 -83 77 -153
209 -175 333 -15 85 -26 298 -23 447 4 221 -10 208 232 208 167 0 186 -2 205
-19 20 -18 21 -28 21 -276 0 -293 7 -338 64 -388 55 -48 167 -51 218 -5 67 60
68 82 68 1182 l0 971 -84 0 c-116 0 -116 0 -116 196 0 84 3 160 6 169 16 40
56 45 342 42 l274 -2 24 -28z m845 4 l24 -19 2 -1254 3 -1253 287 -3 c249 -2
289 -4 305 -19 16 -14 18 -35 18 -189 l0 -173 -26 -20 c-26 -21 -36 -21 -516
-21 l-490 0 -29 29 -29 29 0 1416 c0 959 3 1424 10 1443 19 51 29 53 231 53
169 0 189 -2 210 -19z m-2251 -832 c-15 -55 -53 -95 -210 -217 -441 -346 -569
-448 -567 -454 3 -9 530 -425 624 -491 100 -71 138 -112 152 -162 16 -59 15
-385 -1 -385 -26 0 -106 58 -603 439 -347 266 -415 318 -520 395 -157 117
-173 140 -166 231 5 59 -7 48 436 383 154 116 352 267 440 334 212 161 375
279 400 288 19 7 20 3 23 -157 1 -94 -2 -181 -8 -204z m3186 293 c60 -42 213
-156 339 -252 127 -95 302 -228 390 -295 286 -216 328 -249 383 -302 l55 -51
-5 -57 c-3 -34 -12 -66 -25 -83 -20 -27 -102 -93 -432 -347 -100 -77 -192
-148 -204 -157 -521 -404 -569 -439 -614 -453 l-23 -6 0 143 c0 184 11 260 44
302 14 19 78 74 143 124 65 50 129 99 143 111 14 11 119 94 235 185 115 91
211 169 212 173 1 5 -72 67 -163 138 -91 72 -176 138 -187 147 -12 10 -92 72
-177 139 -199 155 -198 155 -226 213 -20 44 -22 63 -24 227 -1 147 2 179 13
179 8 0 63 -35 123 -78z"/>
</g>
</svg>
